# xmcd CD database file
#
# Track frame offsets:
#	182
#	26265
#	72037
#	97850
#	127872
#	158445
#	188450
#	216610
#
# Disc length: 3113 seconds
#
# Revision: 0
# Processed by: cddbd v1.5.1PL0 Copyright (c) Steve Scherf et al.
# Submitted via: CDex 1.51
#
DISCID=570c2708
DTITLE=Hi-Fly - Jazz Unit
DYEAR=1900
DGENRE=Jazz
TTITLE0=Del Sasser
TTITLE1=Footprints
TTITLE2=Search For Peace
TTITLE3=Sky Dive
TTITLE4=The Maze
TTITLE5=April in New York
TTITLE6=Remember Rockefeller At Attica
TTITLE7=Moments's Notice
EXTD=
EXTT0=
EXTT1=
EXTT2=
EXTT3=
EXTT4=
EXTT5=
EXTT6=
EXTT7=
PLAYORDER=
